<svg width="351" height="122" viewBox="0 0 351 122" fill="none" xmlns="http://www.w3.org/2000/svg">
<g clip-path="url(#clip0)">
<path d="M41.7531 71.5012C41.7914 68.8452 40.8831 66.8051 39.0285 65.3809C37.1742 63.9254 33.821 62.3929 28.9687 60.7834C24.1169 59.1427 20.2802 57.5431 17.4586 55.9845C9.7692 51.7224 5.97555 46.0449 6.07763 38.9519C6.1307 35.2648 7.20912 31.9939 9.31289 29.1391C11.4484 26.2534 14.4652 24.0169 18.3634 22.4295C22.2929 20.8425 26.6794 20.0724 31.5229 20.1192C36.3976 20.1663 40.7284 21.0989 44.5151 22.9168C48.3022 24.7035 51.2194 27.2162 53.2668 30.4549C55.3454 33.6938 56.3552 37.36 56.2963 41.4533L42.2344 41.3173C42.2794 38.1926 41.3299 35.7615 39.386 34.0239C37.4425 32.255 34.6896 31.3534 31.1273 31.3189C27.69 31.2857 25.0076 31.9941 23.0803 33.4443C21.1535 34.8632 20.173 36.76 20.1388 39.1348C20.1069 41.3533 21.1894 43.2232 23.3865 44.7445C25.6148 46.2661 28.8913 47.7041 33.2159 49.0585C41.1809 51.5418 46.9659 54.5823 50.5707 58.1798C54.1755 61.7773 55.9397 66.232 55.8632 71.5439C55.7782 77.4496 53.4772 82.0681 48.9601 85.3995C44.4434 88.6997 38.404 90.3132 30.8419 90.2401C25.5921 90.1893 20.8248 89.1901 16.5399 87.2423C12.2555 85.2633 8.99678 82.5911 6.76376 79.2256C4.56198 75.8604 3.4928 71.975 3.5562 67.5692L17.6649 67.7056C17.5565 75.2361 22.0021 79.0448 31.0017 79.1319C34.3453 79.1642 36.9642 78.5177 38.8585 77.1922C40.7532 75.8355 41.7181 73.9385 41.7531 71.5012ZM80.1187 89.7792L66.0568 89.6432L67.039 21.4002L81.1008 21.5362L80.1187 89.7792ZM128.843 72.3435C128.881 69.6875 127.973 67.6474 126.118 66.2232C124.264 64.7677 120.911 63.2352 116.058 61.6257C111.207 59.985 107.37 58.3853 104.548 56.8267C96.8589 52.5647 93.0652 46.8872 93.1673 39.7942C93.2204 36.1071 94.2988 32.8361 96.4026 29.9814C98.538 27.0957 101.555 24.8592 105.453 23.2718C109.383 21.6847 113.769 20.9146 118.613 20.9615C123.487 21.0086 127.818 21.9412 131.605 23.7591C135.392 25.5458 138.309 28.0585 140.356 31.2971C142.435 34.5361 143.445 38.2023 143.386 42.2956L129.324 42.1596C129.369 39.0349 128.42 36.6038 126.476 34.8662C124.532 33.0973 121.779 32.1956 118.217 32.1612C114.78 32.1279 112.097 32.8364 110.17 34.2866C108.243 35.7055 107.263 37.6023 107.228 39.9771C107.197 42.1956 108.279 44.0655 110.476 45.5868C112.704 47.1084 115.981 48.5464 120.306 49.9008C128.271 52.3841 134.056 55.4246 137.66 59.0221C141.265 62.6195 143.029 67.0743 142.953 72.3862C142.868 78.2919 140.567 82.9104 136.05 86.2418C131.533 89.542 125.494 91.1555 117.932 91.0824C112.682 91.0316 107.914 90.0324 103.63 88.0846C99.3452 86.1056 96.0865 83.4334 93.8534 80.0679C91.6517 76.7027 90.5825 72.8173 90.6459 68.4115L104.755 68.5479C104.646 76.0784 109.092 79.8871 118.091 79.9742C121.435 80.0065 124.054 79.3599 125.948 78.0345C127.843 76.6777 128.808 74.7808 128.843 72.3435ZM206.378 82.375C203.803 85.3814 200.191 87.7059 195.542 89.3485C190.893 90.9599 185.756 91.7384 180.132 91.684C174.226 91.6269 169.057 90.2956 164.625 87.6901C160.225 85.0537 156.842 81.2709 154.475 76.3415C152.14 71.4125 150.988 65.6356 151.021 59.0106L151.088 54.3705C151.186 47.5587 152.411 41.6797 154.764 36.7336C157.148 31.7564 160.515 27.9764 164.866 25.3933C169.247 22.7794 174.344 21.5005 180.157 21.5567C188.25 21.635 194.55 23.6335 199.056 27.5522C203.563 31.4397 206.186 37.0746 206.923 44.457L193.236 44.3246C192.668 40.4128 191.318 37.5402 189.188 35.7071C187.089 33.8742 184.165 32.9396 180.415 32.9034C175.634 32.8571 171.968 34.6186 169.416 38.1878C166.865 41.757 165.522 47.088 165.389 54.1807L165.326 58.5396C165.223 65.6951 166.505 71.1139 169.171 74.7961C171.837 78.4783 175.795 80.3447 181.044 80.3955C186.325 80.4466 190.107 79.3581 192.389 77.1301L192.558 65.3657L179.762 65.242L179.911 54.8837L206.769 55.1434L206.378 82.375ZM259.152 63.6191L232.154 63.3579L231.752 91.2457L217.69 91.1097L218.672 22.8668L263.108 23.2965L262.944 34.686L232.57 34.3922L232.317 52.0154L259.316 52.2765L259.152 63.6191Z" fill="#6C63FF"/>
<path d="M19.5691 114.956C19.5739 114.624 19.4604 114.369 19.2285 114.191C18.9968 114.009 18.5776 113.818 17.9711 113.616C17.3646 113.411 16.885 113.211 16.5323 113.017C15.5711 112.484 15.0969 111.774 15.1097 110.888C15.1163 110.427 15.2511 110.018 15.5141 109.661C15.781 109.3 16.1581 109.021 16.6454 108.822C17.1366 108.624 17.6849 108.528 18.2903 108.533C18.8997 108.539 19.441 108.656 19.9144 108.883C20.3877 109.106 20.7524 109.421 21.0083 109.825C21.2681 110.23 21.3944 110.689 21.387 111.2L19.6293 111.183C19.6349 110.793 19.5162 110.489 19.2732 110.272C19.0303 110.05 18.6862 109.938 18.2409 109.933C17.8112 109.929 17.4759 110.018 17.235 110.199C16.9942 110.376 16.8716 110.614 16.8673 110.91C16.8633 111.188 16.9986 111.421 17.2733 111.612C17.5518 111.802 17.9614 111.982 18.502 112.151C19.4976 112.461 20.2207 112.841 20.6713 113.291C21.1219 113.741 21.3424 114.298 21.3329 114.962C21.3222 115.7 21.0346 116.277 20.47 116.693C19.9054 117.106 19.1505 117.308 18.2052 117.299C17.549 117.292 16.9531 117.167 16.4175 116.924C15.8819 116.676 15.4746 116.342 15.1954 115.922C14.9202 115.501 14.7866 115.015 14.7945 114.465L16.5581 114.482C16.5445 115.423 17.1002 115.899 18.2252 115.91C18.6431 115.914 18.9705 115.833 19.2073 115.668C19.4441 115.498 19.5647 115.261 19.5691 114.956ZM24.1715 117.239L22.4723 117.223L22.5635 110.883L24.2627 110.9L24.1715 117.239ZM22.4876 109.242C22.4912 108.988 22.5782 108.78 22.7485 108.618C22.9227 108.455 23.1563 108.375 23.4493 108.378C23.7383 108.381 23.9676 108.465 24.1371 108.631C24.3066 108.797 24.3896 109.007 24.3859 109.26C24.3822 109.518 24.2913 109.728 24.1131 109.891C23.9389 110.053 23.7092 110.133 23.4241 110.13C23.1389 110.127 22.9097 110.043 22.7362 109.877C22.5667 109.712 22.4838 109.5 22.4876 109.242ZM29.0304 115.534C29.0334 115.327 28.9322 115.164 28.7269 115.045C28.5255 114.922 28.199 114.811 27.7472 114.713C26.244 114.382 25.4994 113.734 25.5132 112.769C25.5213 112.207 25.7605 111.741 26.2307 111.37C26.7049 110.996 27.3189 110.812 28.0728 110.82C28.8774 110.827 29.5173 111.023 29.9923 111.406C30.4712 111.79 30.7062 112.285 30.6975 112.89L29.0043 112.874C29.0077 112.631 28.9325 112.431 28.7785 112.274C28.6246 112.112 28.3816 112.03 28.0496 112.026C27.7644 112.024 27.5428 112.086 27.3847 112.213C27.2266 112.341 27.1461 112.504 27.1433 112.703C27.1406 112.891 27.2262 113.044 27.4003 113.163C27.5784 113.278 27.8777 113.38 28.2983 113.47C28.719 113.556 29.0731 113.654 29.3606 113.762C30.2504 114.099 30.6895 114.671 30.6778 115.48C30.6695 116.058 30.4147 116.524 29.9135 116.879C29.4123 117.229 28.7692 117.401 27.984 117.393C27.4528 117.388 26.9815 117.29 26.5702 117.098C26.1628 116.903 25.8443 116.64 25.6146 116.31C25.3851 115.975 25.273 115.617 25.2785 115.234L26.8839 115.25C26.8952 115.551 27.0032 115.782 27.2079 115.944C27.4127 116.106 27.6888 116.189 28.0365 116.192C28.3607 116.196 28.6057 116.137 28.7715 116.018C28.9412 115.895 29.0276 115.733 29.0304 115.534ZM33.8882 109.434L33.8658 110.993L34.9497 111.003L34.9318 112.245L33.8479 112.235L33.8023 115.399C33.799 115.633 33.8415 115.801 33.9299 115.904C34.0182 116.006 34.1894 116.059 34.4433 116.061C34.6308 116.063 34.797 116.051 34.9419 116.025L34.9234 117.308C34.5899 117.406 34.2474 117.454 33.8959 117.45C32.7084 117.439 32.1116 116.833 32.1054 115.634L32.1546 112.218L31.2289 112.209L31.2467 110.967L32.1725 110.976L32.1949 109.418L33.8882 109.434ZM38.7179 117.497C37.7883 117.488 37.0346 117.195 36.4569 116.62C35.8831 116.044 35.603 115.281 35.6167 114.332L35.619 114.168C35.6282 113.531 35.7594 112.964 36.0127 112.467C36.266 111.965 36.6192 111.582 37.0723 111.317C37.5294 111.048 38.0469 110.916 38.625 110.922C39.4922 110.93 40.1698 111.21 40.658 111.762C41.1502 112.313 41.389 113.091 41.3745 114.095L41.3646 114.786L37.3277 114.747C37.3764 115.162 37.5357 115.495 37.8055 115.748C38.0792 116 38.427 116.129 38.8489 116.133C39.5012 116.139 40.0143 115.908 40.3883 115.439L41.2069 116.378C40.9478 116.735 40.6 117.013 40.1636 117.212C39.7271 117.407 39.2452 117.502 38.7179 117.497ZM38.5994 112.292C38.2635 112.289 37.9885 112.4 37.7743 112.624C37.564 112.849 37.4265 113.172 37.3619 113.593L39.7172 113.616L39.7192 113.481C39.7167 113.106 39.6193 112.816 39.427 112.611C39.2346 112.402 38.9588 112.296 38.5994 112.292ZM43.9727 111.091L44.0152 111.8C44.4724 111.254 45.0837 110.984 45.8493 110.991C46.6657 110.999 47.2216 111.327 47.5169 111.974C47.9715 111.334 48.6109 111.018 49.4351 111.026C50.1225 111.033 50.6313 111.239 50.9615 111.644C51.2917 112.046 51.451 112.649 51.4394 113.454L51.3811 117.502L49.682 117.486L49.7402 113.443C49.7453 113.084 49.6788 112.822 49.5405 112.656C49.4023 112.487 49.1555 112.4 48.8 112.397C48.2923 112.392 47.9372 112.631 47.735 113.113L47.6782 117.466L45.9849 117.45L46.043 113.413C46.0483 113.046 45.9798 112.78 45.8377 112.614C45.6955 112.449 45.4506 112.365 45.103 112.361C44.6225 112.357 44.272 112.552 44.0514 112.949L43.9869 117.431L42.2937 117.414L42.3849 111.075L43.9727 111.091ZM56.3614 117.55C56.2854 117.397 56.2315 117.207 56.1996 116.98C55.7829 117.433 55.2464 117.657 54.5902 117.65C53.9692 117.644 53.4561 117.46 53.0512 117.096C52.6501 116.733 52.4535 116.278 52.4614 115.731C52.4711 115.06 52.7265 114.546 53.2278 114.192C53.7329 113.837 54.4562 113.663 55.3976 113.668L56.1769 113.675L56.1821 113.312C56.1863 113.019 56.1135 112.784 55.9637 112.607C55.8178 112.43 55.5828 112.34 55.2585 112.336C54.9734 112.334 54.7478 112.4 54.5818 112.535C54.4197 112.67 54.3369 112.857 54.3335 113.095L52.6402 113.079C52.6455 112.712 52.7637 112.373 52.9947 112.063C53.2258 111.752 53.5496 111.511 53.9661 111.34C54.3828 111.164 54.8489 111.078 55.3645 111.083C56.1457 111.091 56.762 111.294 57.2133 111.693C57.6686 112.088 57.8911 112.641 57.8809 113.352L57.8413 116.1C57.8366 116.701 57.914 117.157 58.0736 117.467L58.0722 117.567L56.3614 117.55ZM54.978 116.359C55.228 116.362 55.4592 116.309 55.6717 116.202C55.8843 116.091 56.0427 115.942 56.1469 115.755L56.1626 114.666L55.5298 114.659C54.6822 114.651 54.2268 114.94 54.1637 115.525L54.1564 115.625C54.1534 115.836 54.2251 116.01 54.3716 116.148C54.518 116.286 54.7202 116.357 54.978 116.359ZM61.8918 114.387C61.906 113.399 62.138 112.614 62.5878 112.032C63.0415 111.451 63.6532 111.164 64.4226 111.171C65.0398 111.177 65.5462 111.412 65.9419 111.877L65.9885 108.643L67.6876 108.66L67.5581 117.659L66.0289 117.644L65.9565 116.969C65.5271 117.493 64.9804 117.751 64.3163 117.745C63.5703 117.737 62.9749 117.439 62.5302 116.848C62.0895 116.254 61.8767 115.434 61.8918 114.387ZM63.5833 114.526C63.5747 115.12 63.6717 115.576 63.8742 115.894C64.0766 116.213 64.3751 116.374 64.7696 116.378C65.293 116.383 65.6653 116.166 65.8865 115.726L65.9225 113.225C65.718 112.781 65.3559 112.557 64.8364 112.552C64.02 112.544 63.6023 113.202 63.5833 114.526ZM71.7867 117.817C70.857 117.808 70.1034 117.515 69.5257 116.939C68.9519 116.364 68.6718 115.601 68.6855 114.652L68.6878 114.488C68.697 113.851 68.8282 113.284 69.0815 112.787C69.3348 112.285 69.688 111.902 70.1411 111.637C70.5981 111.368 71.1157 111.236 71.6938 111.241C72.5609 111.25 73.2386 111.53 73.7268 112.081C74.2189 112.633 74.4578 113.411 74.4433 114.415L74.4334 115.106L70.3964 115.067C70.4452 115.481 70.6044 115.815 70.8743 116.068C71.148 116.32 71.4958 116.449 71.9176 116.453C72.57 116.459 73.0831 116.228 73.4571 115.759L74.2757 116.698C74.0166 117.055 73.6688 117.333 73.2323 117.532C72.7959 117.727 72.314 117.822 71.7867 117.817ZM71.6682 112.612C71.3323 112.609 71.0572 112.72 70.843 112.944C70.6328 113.169 70.4953 113.492 70.4306 113.913L72.786 113.936L72.7879 113.801C72.7855 113.426 72.6881 113.136 72.4957 112.931C72.3034 112.722 72.0276 112.616 71.6682 112.612ZM85.2271 116.751C84.9052 117.127 84.4537 117.418 83.8726 117.623C83.2915 117.825 82.6495 117.922 81.9464 117.915C81.2081 117.908 80.562 117.741 80.0081 117.416C79.4581 117.086 79.0351 116.613 78.7393 115.997C78.4473 115.381 78.3034 114.659 78.3075 113.831L78.3159 113.251C78.3281 112.399 78.4813 111.664 78.7754 111.046C79.0734 110.424 79.4943 109.952 80.0381 109.629C80.5858 109.302 81.2229 109.142 81.9495 109.149C82.9611 109.159 83.7486 109.409 84.3119 109.899C84.8753 110.384 85.2031 111.089 85.2953 112.012L83.5844 111.995C83.5133 111.506 83.3447 111.147 83.0784 110.918C82.8161 110.689 82.4505 110.572 81.9818 110.567C81.3842 110.562 80.9259 110.782 80.6069 111.228C80.288 111.674 80.1202 112.341 80.1035 113.227L80.0957 113.772C80.0828 114.666 80.243 115.344 80.5762 115.804C80.9095 116.264 81.4042 116.498 82.0604 116.504C82.7206 116.51 83.1933 116.374 83.4785 116.096L83.4997 114.625L81.9002 114.61L81.9188 113.315L85.2761 113.347L85.2271 116.751ZM89.446 117.988C88.5164 117.979 87.7627 117.686 87.185 117.11C86.6112 116.534 86.3311 115.772 86.3448 114.823L86.3471 114.659C86.3563 114.022 86.4875 113.455 86.7408 112.957C86.9941 112.456 87.3473 112.073 87.8004 111.807C88.2575 111.538 88.775 111.407 89.3531 111.412C90.2203 111.421 90.8979 111.701 91.3861 112.252C91.8783 112.804 92.1171 113.582 92.1026 114.585L92.0927 115.277L88.0558 115.238C88.1045 115.652 88.2638 115.986 88.5336 116.238C88.8073 116.491 89.1551 116.619 89.577 116.624C90.2293 116.63 90.7424 116.398 91.1164 115.929L91.935 116.869C91.6759 117.226 91.3281 117.504 90.8916 117.703C90.4552 117.898 89.9733 117.993 89.446 117.988ZM89.3275 112.783C88.9916 112.78 88.7166 112.89 88.5024 113.115C88.2921 113.34 88.1546 113.662 88.09 114.084L90.4453 114.106L90.4473 113.972C90.4448 113.597 90.3474 113.307 90.1551 113.102C89.9627 112.893 89.6869 112.787 89.3275 112.783ZM96.6525 113.188C96.4225 113.154 96.2196 113.137 96.0438 113.135C95.4032 113.129 94.9802 113.342 94.7747 113.773L94.715 117.921L93.0217 117.905L93.113 111.566L94.7125 111.581L94.7485 112.337C95.0967 111.759 95.5716 111.472 96.1731 111.478C96.3606 111.48 96.536 111.507 96.6993 111.559L96.6525 113.188ZM100.203 118.092C99.2737 118.083 98.52 117.79 97.9423 117.214C97.3685 116.638 97.0884 115.876 97.1021 114.927L97.1045 114.763C97.1136 114.126 97.2448 113.559 97.4981 113.061C97.7514 112.56 98.1047 112.177 98.5577 111.911C99.0148 111.642 99.5323 111.511 100.11 111.516C100.978 111.525 101.655 111.805 102.143 112.356C102.636 112.908 102.874 113.686 102.86 114.689L102.85 115.381L98.8131 115.342C98.8618 115.756 99.0211 116.09 99.2909 116.342C99.5646 116.595 99.9124 116.724 100.334 116.728C100.987 116.734 101.5 116.503 101.874 116.033L102.692 116.973C102.433 117.33 102.085 117.608 101.649 117.807C101.213 118.002 100.731 118.097 100.203 118.092ZM100.085 112.887C99.7489 112.884 99.4739 112.995 99.2597 113.219C99.0494 113.444 98.9119 113.766 98.8473 114.188L101.203 114.21L101.205 114.076C101.202 113.701 101.105 113.411 100.912 113.206C100.72 112.997 100.444 112.891 100.085 112.887ZM105.429 111.685L105.471 112.418C105.932 111.856 106.544 111.578 107.305 111.586C107.977 111.592 108.474 111.794 108.797 112.192C109.119 112.59 109.279 113.181 109.275 113.966L109.216 118.062L107.523 118.045L107.581 113.991C107.587 113.632 107.512 113.371 107.358 113.209C107.204 113.044 106.946 112.959 106.583 112.956C106.106 112.951 105.746 113.151 105.502 113.555L105.437 118.025L103.744 118.009L103.835 111.669L105.429 111.685ZM113.16 116.852C113.472 116.855 113.727 116.771 113.925 116.601C114.123 116.431 114.228 116.204 114.24 115.919L115.828 115.934C115.818 116.364 115.695 116.757 115.459 117.114C115.223 117.467 114.903 117.742 114.498 117.937C114.097 118.128 113.654 118.222 113.17 118.217C112.263 118.208 111.553 117.914 111.037 117.335C110.522 116.752 110.272 115.953 110.287 114.937L110.288 114.826C110.302 113.849 110.573 113.073 111.101 112.496C111.629 111.919 112.346 111.635 113.252 111.643C114.045 111.651 114.677 111.884 115.147 112.341C115.621 112.795 115.856 113.397 115.853 114.147L114.266 114.132C114.262 113.804 114.165 113.537 113.972 113.332C113.78 113.123 113.524 113.017 113.203 113.014C112.809 113.01 112.508 113.152 112.301 113.439C112.097 113.722 111.991 114.186 111.982 114.83L111.979 115.006C111.97 115.658 112.063 116.128 112.258 116.415C112.453 116.702 112.754 116.848 113.16 116.852ZM118.55 118.152L116.851 118.135L116.942 111.796L118.641 111.813L118.55 118.152ZM116.866 110.155C116.87 109.901 116.957 109.693 117.127 109.53C117.301 109.368 117.535 109.288 117.828 109.291C118.117 109.294 118.346 109.378 118.516 109.544C118.685 109.709 118.768 109.919 118.764 110.173C118.761 110.431 118.67 110.641 118.492 110.803C118.317 110.966 118.088 111.046 117.802 111.043C117.517 111.04 117.288 110.956 117.115 110.79C116.945 110.624 116.862 110.413 116.866 110.155ZM123.624 118.201C123.548 118.048 123.494 117.858 123.462 117.631C123.045 118.084 122.509 118.307 121.853 118.301C121.232 118.295 120.719 118.11 120.314 117.747C119.913 117.384 119.716 116.929 119.724 116.382C119.734 115.71 119.989 115.197 120.49 114.842C120.995 114.488 121.719 114.313 122.66 114.318L123.439 114.326L123.445 113.963C123.449 113.67 123.376 113.435 123.226 113.257C123.08 113.08 122.845 112.99 122.521 112.987C122.236 112.984 122.01 113.05 121.844 113.185C121.682 113.321 121.599 113.507 121.596 113.746L119.903 113.729C119.908 113.362 120.026 113.023 120.257 112.713C120.488 112.403 120.812 112.162 121.229 111.99C121.645 111.814 122.111 111.729 122.627 111.734C123.408 111.742 124.024 111.945 124.476 112.344C124.931 112.739 125.154 113.292 125.143 114.003L125.104 116.75C125.099 117.352 125.177 117.808 125.336 118.118L125.335 118.217L123.624 118.201ZM122.24 117.01C122.49 117.012 122.722 116.96 122.934 116.852C123.147 116.741 123.305 116.592 123.409 116.406L123.425 115.316L122.792 115.31C121.945 115.302 121.489 115.59 121.426 116.176L121.419 116.275C121.416 116.486 121.488 116.661 121.634 116.799C121.781 116.937 121.983 117.007 122.24 117.01ZM128.063 111.904L128.105 112.613C128.562 112.067 129.174 111.797 129.939 111.805C130.755 111.813 131.311 112.14 131.607 112.788C132.061 112.148 132.701 111.831 133.525 111.839C134.212 111.846 134.721 112.052 135.051 112.458C135.381 112.859 135.541 113.462 135.529 114.267L135.471 118.315L133.772 118.299L133.83 114.257C133.835 113.897 133.769 113.635 133.63 113.469C133.492 113.3 133.245 113.214 132.89 113.21C132.382 113.205 132.027 113.444 131.825 113.927L131.768 118.28L130.075 118.263L130.133 114.227C130.138 113.859 130.07 113.593 129.927 113.428C129.785 113.262 129.54 113.178 129.193 113.175C128.712 113.17 128.362 113.366 128.141 113.762L128.077 118.244L126.383 118.228L126.475 111.888L128.063 111.904ZM139.694 118.474C138.764 118.465 138.01 118.172 137.433 117.596C136.859 117.02 136.579 116.258 136.592 115.309L136.595 115.145C136.604 114.508 136.735 113.941 136.988 113.443C137.242 112.942 137.595 112.558 138.048 112.293C138.505 112.024 139.023 111.893 139.601 111.898C140.468 111.907 141.146 112.187 141.634 112.738C142.126 113.29 142.365 114.068 142.35 115.071L142.34 115.763L138.303 115.724C138.352 116.138 138.511 116.472 138.781 116.724C139.055 116.977 139.403 117.105 139.825 117.11C140.477 117.116 140.99 116.884 141.364 116.415L142.183 117.355C141.924 117.712 141.576 117.99 141.139 118.189C140.703 118.384 140.221 118.479 139.694 118.474ZM139.575 113.269C139.239 113.266 138.964 113.376 138.75 113.601C138.54 113.825 138.402 114.148 138.338 114.57L140.693 114.592L140.695 114.458C140.692 114.083 140.595 113.793 140.403 113.588C140.21 113.379 139.935 113.273 139.575 113.269ZM144.919 112.067L144.961 112.8C145.423 112.238 146.034 111.96 146.796 111.968C147.468 111.974 147.965 112.176 148.287 112.574C148.61 112.972 148.769 113.563 148.766 114.348L148.707 118.444L147.013 118.427L147.072 114.373C147.077 114.014 147.002 113.753 146.849 113.591C146.695 113.426 146.436 113.341 146.073 113.338C145.596 113.333 145.236 113.533 144.992 113.937L144.928 118.407L143.234 118.391L143.325 112.051L144.919 112.067ZM152.137 110.578L152.114 112.136L153.198 112.147L153.18 113.389L152.096 113.378L152.051 116.542C152.047 116.777 152.09 116.945 152.178 117.047C152.267 117.15 152.438 117.202 152.692 117.205C152.879 117.206 153.045 117.194 153.19 117.168L153.172 118.452C152.838 118.55 152.496 118.597 152.144 118.594C150.957 118.582 150.36 117.977 150.354 116.778L150.403 113.362L149.477 113.353L149.495 112.111L150.421 112.12L150.443 110.562L152.137 110.578ZM153.657 115.263C153.666 114.634 153.795 114.075 154.045 113.585C154.294 113.095 154.647 112.718 155.104 112.452C155.565 112.187 156.096 112.058 156.698 112.064C157.553 112.072 158.247 112.34 158.778 112.869C159.313 113.397 159.606 114.111 159.655 115.01L159.661 115.444C159.647 116.416 159.364 117.195 158.813 117.78C158.261 118.36 157.529 118.646 156.615 118.637C155.701 118.628 154.975 118.328 154.436 117.737C153.902 117.146 153.642 116.347 153.656 115.339L153.657 115.263ZM155.349 115.402C155.34 116.004 155.447 116.466 155.669 116.788C155.891 117.107 156.213 117.268 156.634 117.272C157.045 117.276 157.367 117.123 157.602 116.813C157.837 116.499 157.96 115.996 157.969 115.304C157.978 114.715 157.869 114.257 157.644 113.93C157.418 113.604 157.096 113.439 156.678 113.434C156.264 113.43 155.941 113.589 155.71 113.911C155.479 114.23 155.358 114.726 155.349 115.402ZM163.43 115.369C163.444 114.381 163.676 113.596 164.126 113.014C164.58 112.433 165.191 112.146 165.961 112.153C166.578 112.159 167.084 112.394 167.48 112.859L167.527 109.625L169.226 109.642L169.096 118.641L167.567 118.626L167.495 117.951C167.065 118.475 166.519 118.733 165.855 118.727C165.108 118.719 164.513 118.421 164.068 117.83C163.628 117.236 163.415 116.416 163.43 115.369ZM165.121 115.508C165.113 116.102 165.21 116.558 165.412 116.876C165.615 117.195 165.913 117.356 166.308 117.36C166.831 117.365 167.204 117.148 167.425 116.708L167.461 114.207C167.256 113.763 166.894 113.539 166.375 113.534C165.558 113.526 165.141 114.184 165.121 115.508ZM173.325 118.799C172.395 118.79 171.642 118.497 171.064 117.921C170.49 117.346 170.21 116.583 170.224 115.634L170.226 115.47C170.235 114.833 170.366 114.266 170.62 113.769C170.873 113.267 171.226 112.884 171.679 112.619C172.136 112.35 172.654 112.218 173.232 112.223C174.099 112.232 174.777 112.512 175.265 113.063C175.757 113.615 175.996 114.393 175.982 115.397L175.972 116.088L171.935 116.049C171.983 116.463 172.143 116.797 172.412 117.05C172.686 117.302 173.034 117.431 173.456 117.435C174.108 117.441 174.621 117.21 174.995 116.741L175.814 117.68C175.555 118.037 175.207 118.315 174.771 118.514C174.334 118.709 173.852 118.804 173.325 118.799ZM173.206 113.594C172.87 113.591 172.595 113.702 172.381 113.926C172.171 114.151 172.034 114.474 171.969 114.895L174.324 114.918L174.326 114.783C174.324 114.408 174.226 114.118 174.034 113.913C173.842 113.704 173.566 113.598 173.206 113.594ZM185.183 115.31L181.808 115.277L181.758 118.763L180 118.746L180.123 110.216L185.677 110.27L185.657 111.693L181.86 111.656L181.828 113.859L185.203 113.892L185.183 115.31ZM190.14 118.2C189.715 118.703 189.133 118.952 188.395 118.945C187.715 118.938 187.198 118.738 186.844 118.344C186.495 117.95 186.321 117.376 186.324 116.622L186.384 112.468L188.077 112.484L188.018 116.579C188.009 117.24 188.305 117.573 188.906 117.578C189.481 117.584 189.878 117.389 190.099 116.992L190.163 112.504L191.862 112.521L191.771 118.86L190.177 118.845L190.14 118.2ZM194.698 112.548L194.74 113.281C195.202 112.719 195.813 112.442 196.575 112.449C197.247 112.456 197.744 112.658 198.066 113.055C198.389 113.453 198.548 114.045 198.544 114.83L198.486 118.925L196.792 118.909L196.851 114.854C196.856 114.495 196.781 114.234 196.627 114.073C196.474 113.907 196.215 113.823 195.852 113.819C195.375 113.815 195.015 114.014 194.771 114.418L194.706 118.888L193.013 118.872L193.104 112.533L194.698 112.548ZM202.429 117.715C202.742 117.718 202.997 117.635 203.195 117.465C203.392 117.295 203.497 117.067 203.509 116.782L205.097 116.797C205.087 117.227 204.964 117.62 204.728 117.977C204.493 118.331 204.172 118.605 203.767 118.8C203.366 118.992 202.923 119.085 202.439 119.08C201.533 119.072 200.822 118.778 200.307 118.198C199.792 117.615 199.541 116.816 199.556 115.8L199.558 115.689C199.572 114.713 199.843 113.936 200.371 113.359C200.898 112.782 201.615 112.498 202.522 112.507C203.315 112.514 203.946 112.747 204.416 113.205C204.89 113.659 205.126 114.26 205.123 115.01L203.535 114.995C203.532 114.667 203.434 114.4 203.242 114.195C203.049 113.986 202.793 113.88 202.473 113.877C202.078 113.874 201.777 114.015 201.57 114.302C201.367 114.585 201.26 115.049 201.251 115.694L201.249 115.87C201.239 116.522 201.332 116.991 201.527 117.279C201.722 117.566 202.023 117.711 202.429 117.715ZM207.819 119.015L206.12 118.999L206.211 112.66L207.91 112.676L207.819 119.015ZM206.135 111.018C206.139 110.764 206.226 110.556 206.396 110.394C206.57 110.231 206.804 110.152 207.097 110.154C207.386 110.157 207.615 110.241 207.785 110.407C207.954 110.573 208.037 110.783 208.034 111.037C208.03 111.294 207.939 111.504 207.761 111.667C207.587 111.829 207.357 111.909 207.072 111.906C206.787 111.903 206.557 111.819 206.384 111.653C206.214 111.488 206.131 111.276 206.135 111.018ZM209.002 115.798C209.011 115.169 209.14 114.61 209.39 114.12C209.639 113.63 209.992 113.253 210.449 112.988C210.91 112.723 211.441 112.593 212.043 112.599C212.898 112.607 213.592 112.876 214.123 113.404C214.659 113.933 214.951 114.647 215.001 115.545L215.006 115.979C214.992 116.952 214.709 117.73 214.158 118.315C213.607 118.895 212.874 119.181 211.96 119.172C211.046 119.164 210.32 118.864 209.781 118.272C209.247 117.681 208.987 116.882 209.001 115.874L209.002 115.798ZM210.694 115.937C210.685 116.539 210.792 117.001 211.014 117.323C211.236 117.642 211.558 117.803 211.979 117.807C212.39 117.811 212.712 117.658 212.947 117.348C213.182 117.034 213.305 116.531 213.315 115.84C213.323 115.25 213.214 114.792 212.989 114.465C212.763 114.139 212.441 113.974 212.023 113.97C211.609 113.966 211.286 114.125 211.055 114.447C210.824 114.765 210.703 115.262 210.694 115.937ZM217.654 112.77L217.696 113.503C218.157 112.941 218.769 112.664 219.531 112.671C220.202 112.678 220.7 112.88 221.022 113.277C221.344 113.675 221.504 114.267 221.5 115.052L221.442 119.147L219.748 119.131L219.807 115.076C219.812 114.717 219.737 114.456 219.583 114.295C219.43 114.129 219.171 114.045 218.808 114.041C218.331 114.037 217.971 114.236 217.727 114.64L217.662 119.11L215.969 119.094L216.06 112.755L217.654 112.77ZM226.404 119.195C226.328 119.042 226.274 118.852 226.242 118.625C225.826 119.078 225.289 119.301 224.633 119.295C224.012 119.289 223.499 119.104 223.094 118.741C222.693 118.378 222.496 117.923 222.504 117.376C222.514 116.704 222.769 116.191 223.271 115.836C223.776 115.482 224.499 115.307 225.44 115.312L226.22 115.32L226.225 114.957C226.229 114.664 226.156 114.429 226.007 114.251C225.861 114.074 225.626 113.984 225.301 113.981C225.016 113.978 224.791 114.044 224.625 114.18C224.463 114.315 224.38 114.501 224.376 114.74L222.683 114.723C222.688 114.356 222.806 114.017 223.038 113.707C223.269 113.397 223.592 113.156 224.009 112.984C224.426 112.808 224.892 112.723 225.407 112.728C226.189 112.736 226.805 112.939 227.256 113.338C227.711 113.733 227.934 114.286 227.924 114.997L227.884 117.744C227.879 118.346 227.957 118.802 228.116 119.112L228.115 119.212L226.404 119.195ZM225.021 118.004C225.271 118.006 225.502 117.954 225.715 117.846C225.927 117.735 226.085 117.586 226.19 117.4L226.205 116.31L225.573 116.304C224.725 116.296 224.27 116.584 224.207 117.17L224.199 117.269C224.196 117.48 224.268 117.655 224.414 117.793C224.561 117.931 224.763 118.001 225.021 118.004ZM225.778 110.189L227.623 110.206L225.974 112.007L224.597 111.994L225.778 110.189ZM232.795 114.505C232.565 114.471 232.362 114.454 232.186 114.452C231.545 114.446 231.122 114.658 230.917 115.09L230.857 119.238L229.164 119.222L229.255 112.882L230.855 112.898L230.891 113.654C231.239 113.075 231.714 112.789 232.315 112.795C232.503 112.797 232.678 112.824 232.841 112.876L232.795 114.505ZM235.333 119.281L233.634 119.265L233.726 112.926L235.425 112.942L235.333 119.281ZM233.65 111.284C233.653 111.03 233.74 110.822 233.911 110.66C234.085 110.497 234.318 110.418 234.611 110.421C234.9 110.423 235.13 110.508 235.299 110.673C235.469 110.839 235.552 111.049 235.548 111.303C235.544 111.56 235.453 111.77 235.275 111.933C235.101 112.095 234.871 112.175 234.586 112.172C234.301 112.17 234.072 112.085 233.898 111.92C233.729 111.754 233.646 111.542 233.65 111.284ZM236.517 116.064C236.526 115.435 236.655 114.876 236.904 114.386C237.153 113.896 237.506 113.519 237.963 113.254C238.424 112.989 238.955 112.859 239.557 112.865C240.412 112.873 241.106 113.142 241.637 113.67C242.173 114.199 242.465 114.913 242.515 115.812L242.52 116.245C242.506 117.218 242.224 117.996 241.672 118.581C241.121 119.162 240.388 119.447 239.474 119.439C238.56 119.43 237.834 119.13 237.295 118.539C236.761 117.947 236.501 117.148 236.515 116.14L236.517 116.064ZM238.208 116.204C238.199 116.805 238.306 117.267 238.528 117.589C238.75 117.908 239.072 118.069 239.494 118.073C239.904 118.077 240.226 117.924 240.461 117.614C240.696 117.3 240.819 116.797 240.829 116.106C240.837 115.516 240.729 115.058 240.503 114.732C240.277 114.405 239.955 114.24 239.537 114.236C239.123 114.232 238.801 114.391 238.569 114.713C238.338 115.031 238.218 115.528 238.208 116.204ZM246.977 117.642C246.98 117.435 246.879 117.272 246.674 117.153C246.472 117.03 246.146 116.919 245.694 116.821C244.191 116.49 243.446 115.842 243.46 114.877C243.468 114.315 243.707 113.848 244.178 113.478C244.652 113.104 245.266 112.92 246.02 112.927C246.824 112.935 247.464 113.131 247.939 113.514C248.418 113.898 248.653 114.392 248.644 114.998L246.951 114.981C246.955 114.739 246.879 114.539 246.725 114.382C246.571 114.22 246.328 114.137 245.996 114.134C245.711 114.132 245.49 114.194 245.332 114.321C245.173 114.449 245.093 114.612 245.09 114.811C245.087 114.999 245.173 115.152 245.347 115.271C245.525 115.386 245.825 115.488 246.245 115.578C246.666 115.664 247.02 115.761 247.307 115.87C248.197 116.206 248.636 116.779 248.625 117.588C248.616 118.166 248.362 118.632 247.86 118.986C247.359 119.337 246.716 119.509 245.931 119.501C245.4 119.496 244.928 119.398 244.517 119.206C244.11 119.011 243.791 118.748 243.561 118.418C243.332 118.083 243.22 117.725 243.225 117.342L244.831 117.357C244.842 117.658 244.95 117.89 245.155 118.052C245.359 118.214 245.636 118.297 245.983 118.3C246.308 118.303 246.553 118.245 246.718 118.126C246.888 118.002 246.974 117.841 246.977 117.642Z" fill="#6D6D6D"/>
</g>
<defs>
<clipPath id="clip0">
<rect width="351" height="122" fill="white"/>
</clipPath>
</defs>
</svg>
